<svg xmlns="http://www.w3.org/2000/svg" xmlns:xlink="http://www.w3.org/1999/xlink" width="500" zoomAndPan="magnify" viewBox="0 0 375 374.999991" height="500" preserveAspectRatio="xMidYMid meet" version="1.0"><defs><g/><clipPath id="ea59b25281"><path d="M 78 223 L 95 223 L 95 232.773438 L 78 232.773438 Z M 78 223 " clip-rule="nonzero"/></clipPath><clipPath id="bd80a86a9c"><path d="M 37.851562 142.023438 L 135.351562 142.023438 L 135.351562 232.773438 L 37.851562 232.773438 Z M 37.851562 142.023438 " clip-rule="nonzero"/></clipPath><clipPath id="d66417decd"><path d="M 71 149 L 135.351562 149 L 135.351562 232.773438 L 71 232.773438 Z M 71 149 " clip-rule="nonzero"/></clipPath></defs><g clip-path="url(#ea59b25281)"><path fill="#196bab" d="M 94.613281 223.945312 L 88.085938 223.945312 L 78.59375 232.753906 L 85.121094 232.753906 Z M 94.613281 223.945312 " fill-opacity="1" fill-rule="nonzero"/></g><g clip-path="url(#bd80a86a9c)"><path fill="#1b75bb" d="M 133.828125 185.195312 L 91.261719 145.6875 L 88.128906 142.636719 C 87.707031 142.222656 87.152344 142.035156 86.601562 142.054688 C 86.054688 142.035156 85.496094 142.222656 85.074219 142.636719 L 81.945312 145.6875 L 64.359375 162.007812 L 64.359375 158.542969 C 64.359375 157.839844 63.789062 157.269531 63.085938 157.269531 L 52.046875 157.269531 C 51.34375 157.269531 50.773438 157.839844 50.773438 158.542969 L 50.773438 174.621094 L 39.378906 185.195312 C 38.40625 186.097656 37.851562 187.367188 37.851562 188.695312 L 37.851562 193.390625 C 37.851562 194.195312 38.503906 194.847656 39.308594 194.847656 L 50.769531 194.847656 L 50.769531 224.234375 C 50.769531 228.941406 54.585938 232.753906 59.296875 232.753906 L 113.910156 232.753906 C 118.617188 232.753906 122.433594 228.941406 122.433594 224.234375 L 122.433594 194.847656 L 133.894531 194.847656 C 134.703125 194.847656 135.355469 194.195312 135.355469 193.390625 L 135.355469 188.695312 C 135.355469 187.367188 134.800781 186.097656 133.828125 185.195312 Z M 113.164062 220.640625 C 113.164062 222.464844 111.6875 223.945312 109.859375 223.945312 L 63.347656 223.945312 C 61.519531 223.945312 60.039062 222.464844 60.039062 220.640625 L 60.039062 203.730469 C 65.964844 211.832031 75.457031 216.667969 85.496094 216.667969 L 85.582031 216.667969 C 86.800781 216.664062 87.214844 215.695312 87.3125 215.398438 C 87.515625 214.792969 87.464844 213.945312 86.742188 213.347656 L 84.144531 211.390625 C 83.578125 210.964844 83.394531 210.164062 83.789062 209.582031 C 84.207031 208.957031 85.058594 208.820312 85.648438 209.265625 L 85.652344 209.269531 L 88.222656 211.199219 C 88.265625 211.230469 88.308594 211.261719 88.347656 211.296875 L 92.722656 214.585938 C 93.648438 215.28125 94.914062 215.316406 95.90625 214.601562 C 96.394531 214.25 96.75 213.722656 96.898438 213.140625 C 97.167969 212.070312 96.796875 211.007812 95.941406 210.351562 L 90.679688 206.394531 C 90.175781 206.015625 89.96875 205.328125 90.246094 204.761719 C 90.617188 204.003906 91.5625 203.800781 92.203125 204.285156 L 97.488281 208.261719 C 97.5 208.265625 97.507812 208.273438 97.515625 208.28125 L 100.460938 210.496094 C 101.382812 211.1875 102.664062 211.289062 103.621094 210.644531 C 104.375 210.140625 104.808594 209.3125 104.804688 208.414062 C 104.796875 207.589844 104.421875 206.832031 103.765625 206.328125 L 97.121094 201.328125 C 96.617188 200.949219 96.410156 200.261719 96.6875 199.695312 C 97.058594 198.9375 98 198.734375 98.644531 199.21875 L 105.308594 204.230469 C 105.320312 204.238281 105.332031 204.246094 105.339844 204.253906 L 106.304688 204.980469 C 107.4375 205.835938 109.179688 205.699219 110.066406 204.597656 C 110.515625 204.042969 110.71875 203.351562 110.640625 202.644531 C 110.558594 201.878906 110.117188 201.195312 109.5 200.730469 L 91.496094 187.191406 C 89.917969 186.003906 87.742188 186.003906 86.160156 187.1875 L 81.097656 190.984375 C 77.882812 193.394531 73.390625 193.390625 70.179688 190.972656 C 69.261719 190.285156 68.75 189.21875 68.785156 188.070312 C 68.820312 186.972656 69.410156 185.96875 70.285156 185.308594 L 79.003906 178.773438 C 79.6875 178.261719 79.117188 177.1875 78.308594 177.46875 L 63.976562 182.472656 C 62.707031 182.917969 61.375 183.148438 60.039062 183.175781 L 60.039062 182.65625 L 85.5 159.023438 C 86.121094 158.445312 87.082031 158.445312 87.703125 159.023438 L 113.164062 182.65625 Z M 113.164062 220.640625 " fill-opacity="1" fill-rule="nonzero"/></g><g clip-path="url(#d66417decd)"><path fill="#77a1d5" d="M 133.828125 185.195312 L 95.566406 149.679688 L 85.5 159.023438 C 86.121094 158.445312 87.082031 158.445312 87.703125 159.023438 L 113.164062 182.65625 L 113.164062 182.757812 L 111.867188 182.996094 C 109.5625 183.417969 107.183594 183.195312 104.996094 182.355469 L 91.5 177.167969 C 89.027344 176.214844 86.238281 176.601562 84.121094 178.191406 L 71.746094 187.46875 C 71.515625 187.640625 71.390625 187.898438 71.386719 188.179688 C 71.386719 188.464844 71.515625 188.722656 71.742188 188.894531 C 74.035156 190.617188 77.238281 190.621094 79.535156 188.898438 L 84.597656 185.105469 C 87.089844 183.234375 90.570312 183.238281 93.0625 185.113281 L 111.046875 198.636719 C 112.132812 199.453125 112.917969 200.625 113.164062 201.953125 L 113.164062 220.640625 C 113.164062 222.464844 111.6875 223.945312 109.859375 223.945312 L 90.433594 223.945312 L 80.941406 232.753906 L 113.910156 232.753906 C 118.617188 232.753906 122.433594 228.941406 122.433594 224.234375 L 122.433594 194.847656 L 133.898438 194.847656 C 134.703125 194.847656 135.355469 194.195312 135.355469 193.390625 L 135.355469 188.695312 C 135.355469 187.367188 134.800781 186.097656 133.828125 185.195312 Z M 133.828125 185.195312 " fill-opacity="1" fill-rule="nonzero"/><path fill="#77a1d5" d="M 133.828125 185.195312 L 95.566406 149.679688 L 85.5 159.023438 C 86.121094 158.445312 87.082031 158.445312 87.703125 159.023438 L 113.164062 182.65625 L 113.164062 182.757812 L 111.867188 182.996094 C 109.5625 183.417969 107.183594 183.195312 104.996094 182.355469 L 91.5 177.167969 C 89.027344 176.214844 86.238281 176.601562 84.121094 178.191406 L 71.746094 187.46875 C 71.515625 187.640625 71.390625 187.898438 71.386719 188.179688 C 71.386719 188.464844 71.515625 188.722656 71.742188 188.894531 C 74.035156 190.617188 77.238281 190.621094 79.535156 188.898438 L 84.597656 185.105469 C 87.089844 183.234375 90.570312 183.238281 93.0625 185.113281 L 111.046875 198.636719 C 112.132812 199.453125 112.917969 200.625 113.164062 201.953125 L 113.164062 220.640625 C 113.164062 222.464844 111.6875 223.945312 109.859375 223.945312 L 90.433594 223.945312 L 80.941406 232.753906 L 113.910156 232.753906 C 118.617188 232.753906 122.433594 228.941406 122.433594 224.234375 L 122.433594 194.847656 L 133.898438 194.847656 C 134.703125 194.847656 135.355469 194.195312 135.355469 193.390625 L 135.355469 188.695312 C 135.355469 187.367188 134.800781 186.097656 133.828125 185.195312 Z M 133.828125 185.195312 " fill-opacity="1" fill-rule="nonzero"/></g><path fill="#6d94c3" d="M 87.8125 156.878906 L 85.5 159.023438 C 86.121094 158.445312 87.082031 158.445312 87.703125 159.023438 L 89.867188 161.03125 L 98.832031 152.710938 L 95.566406 149.679688 Z M 87.8125 156.878906 " fill-opacity="1" fill-rule="nonzero"/><g fill="#196bab" fill-opacity="1"><g transform="translate(137.117019, 186.995041)"><g><path d="M 41.75 0 L 30 0 L 30 -17.640625 L 16.421875 -17.640625 L 16.421875 0 L 4.671875 0 L 4.671875 -43.25 L 16.421875 -43.25 L 16.421875 -27.21875 L 30 -27.21875 L 30 -43.25 L 41.75 -43.25 Z M 41.75 0 "/></g></g></g><g fill="#196bab" fill-opacity="1"><g transform="translate(183.532086, 186.995041)"><g><path d="M 36 -16.828125 C 36 -11.347656 34.523438 -7.070312 31.578125 -4 C 28.628906 -0.9375 24.503906 0.59375 19.203125 0.59375 C 14.109375 0.59375 10.054688 -0.972656 7.046875 -4.109375 C 4.046875 -7.242188 2.546875 -11.484375 2.546875 -16.828125 C 2.546875 -22.296875 4.019531 -26.539062 6.96875 -29.5625 C 9.914062 -32.59375 14.050781 -34.109375 19.375 -34.109375 C 22.675781 -34.109375 25.585938 -33.40625 28.109375 -32 C 30.628906 -30.601562 32.570312 -28.597656 33.9375 -25.984375 C 35.3125 -23.378906 36 -20.328125 36 -16.828125 Z M 14.296875 -16.828125 C 14.296875 -13.953125 14.675781 -11.757812 15.4375 -10.25 C 16.207031 -8.738281 17.5 -7.984375 19.3125 -7.984375 C 21.113281 -7.984375 22.382812 -8.738281 23.125 -10.25 C 23.863281 -11.757812 24.234375 -13.953125 24.234375 -16.828125 C 24.234375 -19.691406 23.859375 -21.851562 23.109375 -23.3125 C 22.359375 -24.769531 21.078125 -25.5 19.265625 -25.5 C 17.484375 -25.5 16.207031 -24.773438 15.4375 -23.328125 C 14.675781 -21.878906 14.296875 -19.710938 14.296875 -16.828125 Z M 14.296875 -16.828125 "/></g></g></g><g fill="#196bab" fill-opacity="1"><g transform="translate(222.137353, 186.995041)"><g><path d="M 45.15625 0 L 45.15625 -18.21875 C 45.15625 -20.488281 44.84375 -22.191406 44.21875 -23.328125 C 43.59375 -24.460938 42.613281 -25.03125 41.28125 -25.03125 C 39.5 -25.03125 38.191406 -24.269531 37.359375 -22.75 C 36.535156 -21.226562 36.125 -18.851562 36.125 -15.625 L 36.125 0 L 24.53125 0 L 24.53125 -18.21875 C 24.53125 -20.488281 24.234375 -22.191406 23.640625 -23.328125 C 23.046875 -24.460938 22.085938 -25.03125 20.765625 -25.03125 C 18.953125 -25.03125 17.628906 -24.21875 16.796875 -22.59375 C 15.972656 -20.976562 15.5625 -18.335938 15.5625 -14.671875 L 15.5625 0 L 4 0 L 4 -33.515625 L 12.71875 -33.515625 L 14.171875 -29.375 L 14.859375 -29.375 C 15.742188 -30.914062 17.03125 -32.085938 18.71875 -32.890625 C 20.40625 -33.703125 22.320312 -34.109375 24.46875 -34.109375 C 29.300781 -34.109375 32.691406 -32.640625 34.640625 -29.703125 L 35.5625 -29.703125 C 36.507812 -31.085938 37.828125 -32.164062 39.515625 -32.9375 C 41.203125 -33.71875 43.0625 -34.109375 45.09375 -34.109375 C 49.050781 -34.109375 51.976562 -33.09375 53.875 -31.0625 C 55.769531 -29.03125 56.71875 -25.945312 56.71875 -21.8125 L 56.71875 0 Z M 45.15625 0 "/></g></g></g><g fill="#196bab" fill-opacity="1"><g transform="translate(282.72247, 186.995041)"><g><path d="M 20.171875 0.59375 C 14.597656 0.59375 10.265625 -0.890625 7.171875 -3.859375 C 4.085938 -6.828125 2.546875 -11.050781 2.546875 -16.53125 C 2.546875 -22.195312 3.972656 -26.539062 6.828125 -29.5625 C 9.691406 -32.59375 13.773438 -34.109375 19.078125 -34.109375 C 24.128906 -34.109375 28.03125 -32.789062 30.78125 -30.15625 C 33.53125 -27.53125 34.90625 -23.738281 34.90625 -18.78125 L 34.90625 -13.640625 L 14.234375 -13.640625 C 14.304688 -11.765625 14.988281 -10.296875 16.28125 -9.234375 C 17.570312 -8.171875 19.332031 -7.640625 21.5625 -7.640625 C 23.59375 -7.640625 25.460938 -7.828125 27.171875 -8.203125 C 28.878906 -8.585938 30.726562 -9.242188 32.71875 -10.171875 L 32.71875 -1.859375 C 30.90625 -0.929688 29.03125 -0.289062 27.09375 0.0625 C 25.164062 0.414062 22.859375 0.59375 20.171875 0.59375 Z M 19.5 -26.25 C 18.132812 -26.25 16.992188 -25.816406 16.078125 -24.953125 C 15.160156 -24.097656 14.625 -22.753906 14.46875 -20.921875 L 24.40625 -20.921875 C 24.363281 -22.535156 23.90625 -23.828125 23.03125 -24.796875 C 22.15625 -25.765625 20.976562 -26.25 19.5 -26.25 Z M 19.5 -26.25 "/></g></g></g><g fill="#196bab" fill-opacity="1"><g transform="translate(320.166287, 186.995041)"><g/></g></g><g fill="#196bab" fill-opacity="1"><g transform="translate(137.614071, 234.964505)"><g><path d="M 16.1875 0 L 4.671875 0 L 4.671875 -43.25 L 30.234375 -43.25 L 30.234375 -33.875 L 16.1875 -33.875 L 16.1875 -25.625 L 29.140625 -25.625 L 29.140625 -16.25 L 16.1875 -16.25 Z M 16.1875 0 "/></g></g></g><g fill="#196bab" fill-opacity="1"><g transform="translate(170.273236, 234.964505)"><g><path d="M 15.625 0 L 4.046875 0 L 4.046875 -33.515625 L 15.625 -33.515625 Z M 3.75 -41.859375 C 3.75 -43.597656 4.234375 -44.890625 5.203125 -45.734375 C 6.171875 -46.585938 7.726562 -47.015625 9.875 -47.015625 C 12.03125 -47.015625 13.597656 -46.578125 14.578125 -45.703125 C 15.566406 -44.835938 16.0625 -43.554688 16.0625 -41.859375 C 16.0625 -38.472656 14 -36.78125 9.875 -36.78125 C 5.789062 -36.78125 3.75 -38.472656 3.75 -41.859375 Z M 3.75 -41.859375 "/></g></g></g><g fill="#196bab" fill-opacity="1"><g transform="translate(189.975232, 234.964505)"><g><path d="M 25.15625 0 L 25.15625 -18.28125 C 25.15625 -20.507812 24.832031 -22.191406 24.1875 -23.328125 C 23.539062 -24.460938 22.507812 -25.03125 21.09375 -25.03125 C 19.144531 -25.03125 17.734375 -24.25 16.859375 -22.6875 C 15.992188 -21.132812 15.5625 -18.460938 15.5625 -14.671875 L 15.5625 0 L 4 0 L 4 -33.515625 L 12.71875 -33.515625 L 14.171875 -29.375 L 14.859375 -29.375 C 15.835938 -30.957031 17.195312 -32.140625 18.9375 -32.921875 C 20.6875 -33.710938 22.695312 -34.109375 24.96875 -34.109375 C 28.675781 -34.109375 31.5625 -33.03125 33.625 -30.875 C 35.6875 -28.726562 36.71875 -25.707031 36.71875 -21.8125 L 36.71875 0 Z M 25.15625 0 "/></g></g></g><g fill="#196bab" fill-opacity="1"><g transform="translate(230.562527, 234.964505)"><g><path d="M 14.40625 0.59375 C 12.019531 0.59375 9.929688 -0.0820312 8.140625 -1.4375 C 6.359375 -2.800781 4.976562 -4.804688 4 -7.453125 C 3.03125 -10.097656 2.546875 -13.1875 2.546875 -16.71875 C 2.546875 -22.15625 3.640625 -26.410156 5.828125 -29.484375 C 8.015625 -32.566406 11.023438 -34.109375 14.859375 -34.109375 C 16.722656 -34.109375 18.359375 -33.734375 19.765625 -32.984375 C 21.179688 -32.234375 22.472656 -30.972656 23.640625 -29.203125 L 23.875 -29.203125 C 23.5 -31.828125 23.3125 -34.453125 23.3125 -37.078125 L 23.3125 -46.03125 L 34.96875 -46.03125 L 34.96875 0 L 26.25 0 L 23.765625 -4.234375 L 23.3125 -4.234375 C 21.320312 -1.015625 18.351562 0.59375 14.40625 0.59375 Z M 19.140625 -8.546875 C 20.992188 -8.546875 22.300781 -9.128906 23.0625 -10.296875 C 23.820312 -11.460938 24.234375 -13.257812 24.296875 -15.6875 L 24.296875 -16.59375 C 24.296875 -19.550781 23.867188 -21.65625 23.015625 -22.90625 C 22.171875 -24.164062 20.84375 -24.796875 19.03125 -24.796875 C 17.507812 -24.796875 16.328125 -24.078125 15.484375 -22.640625 C 14.648438 -21.210938 14.234375 -19.175781 14.234375 -16.53125 C 14.234375 -13.9375 14.65625 -11.957031 15.5 -10.59375 C 16.351562 -9.226562 17.566406 -8.546875 19.140625 -8.546875 Z M 19.140625 -8.546875 "/></g></g></g><g fill="#196bab" fill-opacity="1"><g transform="translate(269.522792, 234.964505)"><g><path d="M 20.171875 0.59375 C 14.597656 0.59375 10.265625 -0.890625 7.171875 -3.859375 C 4.085938 -6.828125 2.546875 -11.050781 2.546875 -16.53125 C 2.546875 -22.195312 3.972656 -26.539062 6.828125 -29.5625 C 9.691406 -32.59375 13.773438 -34.109375 19.078125 -34.109375 C 24.128906 -34.109375 28.03125 -32.789062 30.78125 -30.15625 C 33.53125 -27.53125 34.90625 -23.738281 34.90625 -18.78125 L 34.90625 -13.640625 L 14.234375 -13.640625 C 14.304688 -11.765625 14.988281 -10.296875 16.28125 -9.234375 C 17.570312 -8.171875 19.332031 -7.640625 21.5625 -7.640625 C 23.59375 -7.640625 25.460938 -7.828125 27.171875 -8.203125 C 28.878906 -8.585938 30.726562 -9.242188 32.71875 -10.171875 L 32.71875 -1.859375 C 30.90625 -0.929688 29.03125 -0.289062 27.09375 0.0625 C 25.164062 0.414062 22.859375 0.59375 20.171875 0.59375 Z M 19.5 -26.25 C 18.132812 -26.25 16.992188 -25.816406 16.078125 -24.953125 C 15.160156 -24.097656 14.625 -22.753906 14.46875 -20.921875 L 24.40625 -20.921875 C 24.363281 -22.535156 23.90625 -23.828125 23.03125 -24.796875 C 22.15625 -25.765625 20.976562 -26.25 19.5 -26.25 Z M 19.5 -26.25 "/></g></g></g><g fill="#196bab" fill-opacity="1"><g transform="translate(306.974342, 234.964505)"><g><path d="M 24.234375 -34.109375 C 25.234375 -34.109375 26.1875 -34.03125 27.09375 -33.875 L 27.75 -33.765625 L 26.71875 -22.84375 C 25.769531 -23.082031 24.457031 -23.203125 22.78125 -23.203125 C 20.257812 -23.203125 18.425781 -22.625 17.28125 -21.46875 C 16.132812 -20.3125 15.5625 -18.648438 15.5625 -16.484375 L 15.5625 0 L 4 0 L 4 -33.515625 L 12.609375 -33.515625 L 14.40625 -28.171875 L 14.96875 -28.171875 C 15.9375 -29.941406 17.28125 -31.375 19 -32.46875 C 20.726562 -33.5625 22.472656 -34.109375 24.234375 -34.109375 Z M 24.234375 -34.109375 "/></g></g></g></svg>